<svg width="20" height="21" viewBox="0 0 20 21" fill="none" xmlns="http://www.w3.org/2000/svg">
<path d="M9.16634 4.71058H4.99967C4.55765 4.71058 4.13372 4.88618 3.82116 5.19874C3.5086 5.5113 3.33301 5.93522 3.33301 6.37725V15.5439C3.33301 15.9859 3.5086 16.4099 3.82116 16.7224C4.13372 17.035 4.55765 17.2106 4.99967 17.2106H14.1663C14.6084 17.2106 15.0323 17.035 15.3449 16.7224C15.6574 16.4099 15.833 15.9859 15.833 15.5439V11.3773M14.6547 3.53225C14.8084 3.37307 14.9923 3.2461 15.1957 3.15875C15.399 3.0714 15.6177 3.02542 15.839 3.0235C16.0603 3.02158 16.2798 3.06375 16.4846 3.14755C16.6894 3.23135 16.8755 3.3551 17.032 3.51159C17.1885 3.66808 17.3122 3.85417 17.396 4.05899C17.4798 4.26382 17.522 4.48329 17.5201 4.70459C17.5182 4.92589 17.4722 5.14459 17.3848 5.34793C17.2975 5.55127 17.1705 5.73517 17.0113 5.88892L9.85634 13.0439H7.49967V10.6873L14.6547 3.53225Z" stroke="#6A9C89" stroke-width="1.4" stroke-linecap="round" stroke-linejoin="round"/>
</svg>
